<?xml version="1.0" encoding="UTF-8" standalone="no"?>
<!-- Created with Inkscape (http://www.inkscape.org/) -->

<svg
   width="63.182522mm"
   height="20.00001mm"
   viewBox="0 0 63.182522 20.00001"
   version="1.1"
   id="svg1"
   inkscape:version="1.4 (e7c3feb100, 2024-10-09)"
   sodipodi:docname="cmus-logo.svg"
   inkscape:export-filename="cmus-logo.png"
   inkscape:export-xdpi="96"
   inkscape:export-ydpi="96"
   xmlns:inkscape="http://www.inkscape.org/namespaces/inkscape"
   xmlns:sodipodi="http://sodipodi.sourceforge.net/DTD/sodipodi-0.dtd"
   xmlns="http://www.w3.org/2000/svg"
   xmlns:svg="http://www.w3.org/2000/svg"
   xmlns:rdf="http://www.w3.org/1999/02/22-rdf-syntax-ns#"
   xmlns:cc="http://creativecommons.org/ns#"
   xmlns:dc="http://purl.org/dc/elements/1.1/">
  <title
     id="title36">cmus Logo</title>
  <sodipodi:namedview
     id="namedview1"
     pagecolor="#ffffff"
     bordercolor="#000000"
     borderopacity="0.25"
     inkscape:showpageshadow="2"
     inkscape:pageopacity="0.0"
     inkscape:pagecheckerboard="0"
     inkscape:deskcolor="#d1d1d1"
     inkscape:document-units="mm"
     showguides="true"
     inkscape:zoom="2"
     inkscape:cx="160.25"
     inkscape:cy="80.75"
     inkscape:window-width="1920"
     inkscape:window-height="1131"
     inkscape:window-x="0"
     inkscape:window-y="0"
     inkscape:window-maximized="1"
     inkscape:current-layer="layer1" />
  <defs
     id="defs1" />
  <g
     inkscape:label="cmus logo"
     inkscape:groupmode="layer"
     id="layer1"
     transform="translate(-50,-49.999991)"
     style="display:inline">
    <path
       style="display:inline;stroke-width:0.64281;paint-order:stroke markers fill"
       d="m 61.874499,64.175931 10e-7,1.866049 c 2e-6,2.638681 -1.312333,3.958021 -3.937,3.958021 H 53.937 C 51.312333,70.000001 50,68.680661 50,66.04198 V 53.958021 C 50,51.31934 51.312333,50 53.937,50 h 4.0005 c 2.624667,0 3.937,1.31934 3.937,3.958021 v 1.829086 c -10e-7,-6e-6 -4.369504,-2.412496 -4.369504,-2.412496 -1.36372,-0.4198 -3.059997,0.21832 -3.059997,1.86137 v 9.54562 c 0,1.61299 1.696277,2.495217 3.059997,1.83139 z m 32.194488,-14.17594 h 4.445 V 66.04198 c 0,2.638681 -1.312333,3.958021 -3.937,3.958021 h -3.937 c -2.624667,0 -3.937,-1.31934 -3.937,-3.958021 V 49.999991 h 4.445 v 16.2317 c 0,0.15992 0.05292,0.29985 0.15875,0.41979 0.127,0.11994 0.275167,0.17991 0.4445,0.17991 h 1.7145 c 0.169333,0 0.306917,-0.05997 0.41275,-0.17991 0.127,-0.11994 0.1905,-0.25987 0.1905,-0.41979 z m 18.891283,5.39731 h -4.22275 v -1.529235 c 0,-0.15992 -0.0635,-0.29985 -0.1905,-0.41979 -0.10583,-0.11994 -0.24342,-0.17991 -0.41275,-0.17991 h -1.74625 c -0.16933,0 -0.3175,0.05997 -0.4445,0.17991 -0.10583,0.11994 -0.15875,0.25987 -0.15875,0.41979 v 3.448276 c 0,0.15992 0.0529,0.29985 0.15875,0.41979 0.127,0.11994 0.27517,0.17991 0.4445,0.17991 h 2.8575 c 2.62467,0.03998 3.937,1.35932 3.937,3.958021 v 4.167917 c 0,2.638681 -1.31233,3.958021 -3.937,3.958021 h -3.7465 c -2.62467,0 -3.937,-1.31934 -3.937,-3.958021 v -2.008996 h 4.22275 v 2.158921 c 0,0.15992 0.0529,0.29985 0.15875,0.41979 0.127,0.11994 0.27517,0.17991 0.4445,0.17991 h 1.9685 c 0.16933,0 0.30692,-0.05997 0.41275,-0.17991 0.127,-0.11994 0.1905,-0.25987 0.1905,-0.41979 v -3.808096 c 0,-0.15992 -0.0635,-0.29985 -0.1905,-0.41979 -0.10583,-0.119941 -0.24342,-0.179911 -0.41275,-0.179911 h -2.8575 c -2.62467,0 -3.937,-1.31934 -3.937,-3.958021 V 53.958021 C 101.56202,51.31934 102.87435,50 105.49902,50 h 3.52425 c 2.62467,0 3.937,1.31934 3.937,3.958021 z"
       id="text1"
       aria-label="CMUS"
       sodipodi:nodetypes="cssssssssccsscccssssccscsscscccscsscsscscsssssccscsscsscssssssscc"
       inkscape:label="c us" />
    <path
       d="m 62.830455,59.074278 -4.03997,-2.459002 c -0.676375,-0.411483 -1.518028,0.109108 -1.518028,0.937376 v 4.918113 c 0,0.829307 0.841653,1.348753 1.518028,0.937376 l 4.03997,-2.457962 c 0.681438,-0.41481 0.681438,-1.461197 0,-1.875901"
       id="play"
       style="display:inline;opacity:1;fill:#000000;stroke-width:1.01151"
       sodipodi:nodetypes="ccssccc"
       inkscape:label="play" />
    <path
       d="m 68.954755,70.000001 h -4.445 l -10e-7,-7.43018 1.138897,-0.69316 c 1.372942,-0.83641 1.372942,-2.94932 0,-3.78129 l -1.138897,-0.69319 10e-7,-3.44416 C 64.509756,51.31934 65.822088,50 68.446755,50 h 2.3495 c 1.545167,0 2.645833,0.47976 3.302,1.43928 C 74.712088,50.47976 75.812755,50 77.400255,50 h 2.3495 c 2.624667,0 3.937,1.31934 3.937,3.958021 v 16.04198 h -4.445 v -16.13193 c 0,-0.15992 -0.0635,-0.29985 -0.1905,-0.41979 -0.105833,-0.11994 -0.243417,-0.17991 -0.41275,-0.17991 h -1.7145 c -0.169333,0 -0.3175,0.05997 -0.4445,0.17991 -0.105833,0.11994 -0.15875,0.25987 -0.15875,0.41979 v 16.13193 h -4.445 v -16.13193 c 0,-0.15992 -0.0635,-0.29985 -0.1905,-0.41979 -0.105833,-0.11994 -0.243417,-0.17991 -0.41275,-0.17991 h -1.7145 c -0.169333,0 -0.3175,0.05997 -0.4445,0.17991 -0.105833,0.11994 -0.15875,0.25987 -0.15875,0.41979 z"
       style="display:inline;stroke-width:0.64281;paint-order:stroke markers fill"
       id="path1-3"
       inkscape:label="mcut"
       sodipodi:nodetypes="ccccccssscsssccscsscsccscsscsc" />
  </g>
  <metadata
     id="metadata36">
    <rdf:RDF>
      <cc:Work
         rdf:about="">
        <dc:title>cmus Logo</dc:title>
        <dc:date>2025-03-07</dc:date>
        <dc:creator>
          <cc:Agent>
            <dc:title>Jonas Jared Jacek (J15k)</dc:title>
          </cc:Agent>
        </dc:creator>
        <dc:rights>
          <cc:Agent>
            <dc:title>GPL-2.0 license</dc:title>
          </cc:Agent>
        </dc:rights>
        <dc:subject>
          <rdf:Bag>
            <rdf:li>cmus</rdf:li>
            <rdf:li>c* music player</rdf:li>
            <rdf:li>c music player</rdf:li>
          </rdf:Bag>
        </dc:subject>
        <dc:publisher>
          <cc:Agent>
            <dc:title>Jonas Jared Jacek (J15k)</dc:title>
          </cc:Agent>
        </dc:publisher>
        <cc:license
           rdf:resource="https://www.gnu.org/licenses/old-licenses/gpl-2.0.en.html" />
        <dc:identifier>https://github.com/j15k/cmus-logo</dc:identifier>
        <dc:relation>https://www.j15k.com/</dc:relation>
      </cc:Work>
    </rdf:RDF>
  </metadata>
</svg>
